<mxfile host="65bd71144e">
    <diagram id="Rxlw-_y75xSriJc_wGvX" name="Page-1">
        <mxGraphModel dx="895" dy="629" grid="1" gridSize="10" guides="1" tooltips="1" connect="1" arrows="1" fold="1" page="1" pageScale="1" pageWidth="850" pageHeight="1100" math="0" shadow="0">
            <root>
                <mxCell id="0"/>
                <mxCell id="1" parent="0"/>
                <mxCell id="4" value="" style="rounded=1;whiteSpace=wrap;html=1;fillColor=#f9f7ed;strokeColor=#36393d;" vertex="1" parent="1">
                    <mxGeometry x="20" y="220" width="800" height="320" as="geometry"/>
                </mxCell>
                <mxCell id="3" value="" style="shape=image;verticalLabelPosition=bottom;labelBackgroundColor=#ffffff;verticalAlign=top;aspect=fixed;imageAspect=0;image=data:image/png,iVBORw0KGgoAAAANSUhEUgAAALIAAABMCAYAAADJEu0BAAAABHNCSVQICAgIfAhkiAAADV5JREFUeF7tnV+MVcUdx2eLCY0oSySFQENhbWkxAVkCfdAXWKMPbVJ3ebEPmLCkpmpqAlujPikE++I2LZC0Vo0WSODB+MBumzRNbFx4UZNqYClJadQuxBQCDX8WpSlJyXY+A7/r3Llzzr3n3HPOvefs/JKTu2f+/P7Nd37zm5kj9sxoUoGCB0ruga+VXP+gfvCA8UAAcgBCJTwQgFyJYQxGBCAHDFTCAwHIlRjGYEQAcsBAJTwQgFyJYQxGBCAHDFTCAwHIlRjGYEQAcsBAJTwQgFyJYQxG3BFcEDwQ5YEb/7qgbpy/WFc9d8kiNfebi6O6dKy8K4B87tAR9flrh1XvhvtV33NPFuIoBmnql6+r6Y9OqmVPbVFLH9/cMAgXx99VF//wl4ZyCla/9UpD+c0vvlRTo2+o/567oHq/f7/h2y5dP/2Z1vMNL5tFjz6sFg0+0lB36icv1Mp8ejZ0uF1weeIDdfm9D9T1f3ymn39GNTPl8/VYzfvevWrhwANqvra109RxIAOoM7cHyjhSP8uefjwTEPicC9jOHR5Xn//uUK0a+QsHHmyYQDc0IK9poLdKFwzw3zXN6cdEwBYAl5ZufnE9UofeDWu8bJPoLP4gmCCrVUIGz/nDY2ru0sU6EAypJVuGWu2eebvOA1mDxSVABghW7v55prP92l9Pqk9e+rUCoC5R1u6S6QIBnp+++Cszafqe+6m656EHXbEdfb/83vsm2rv+IH0g2s5b9W2jH3//T4Nc2k1rPxK1b375H1NP+dTo6+rcoTG1as+LtX5FGtdxIEcZi3NOPfGCukcvXe2mG5JGEO07QdhyeuRlsxx/S6cb3bAUEyg+1ZPapm/86GETWQXAUb5a9vStGibCJZ2K/PuPt9IvGTMCUNGTtmuBLE4EfOSx5LBpck5y76TLZtQAtlvOUnzqiZMG0EToZoBpV15UfwBog/jO7/ap+/buTLwiAVaexTpP/0SvPGwMWZWYtGvf/k2h9pXi+A3nsDxPPvYzRXrQCtGO9vRzl/xW+ufZBkBP/vgZnXboNEfvEYokcmLSK6H569eoNb8fTQxiW2dWmP53fquYEEJutM/bxlIAWZzATpp0AwAwID6inHraNdt5+/oXWcbG8OMfDsfak7U+5LEysefcdae6b99Las7dd7UtBh4rX362xgffk74URaUCsjgFAHz0g2GzY7aJd8rl5KAoJ7YrR+whDYqaoO3K+Mp3Xx0nkq5lAWLhTapEni1EClMUdX2OHOUIogo7ZTYbnKWe18dH3R6Bo2yhXNIn8nkAtnTLYKYgE9n2CQXn9lnTwoceqG3+pj/+W9bsI/mVFshikZxnRlpYsgoBtJxBcyGSFbn7izxOT+6w0pQi9yZdDWRzHaoP269lMLPZ1BCN3CvXrEDSjI+cuJgTlNvnr3F90JUz6Cxpzt3z6tiRxmSZWmSpa1JeXZ0jkzKs1jtqDtnZmKQhJsPqN18xfHzXuWl4punDMs4t34Y/H9Q3YINpWLTdxz3uu346/ho6jUCu54XSjlkauV0NZDGIs8qkAMCJRMH1Gjh5LKFpnE0fImDf80+p9X86ULcxSssvaT8mttCliew3Y/YGL48cPMreUgDZBgAH7fZ5pc8wds4AnwjYrcR1+MpfPGsATdpTFC3RN3dCfBCV5Tk2Ofjlox/W+Be5ApYGyOIdlsf+d15VK/TNmLt0AXDSCABSltwPQJP2oHcRgOYWTvx26xZudyZHfmxK/z6yuwZixqLIa+rSAVk8xRGVpBsA4Dv6fh+Ad1MakSTKorcAutmKk4Sv25YJznW0EEeWJx57puUbU5cf76QTXEDZFy325YivT9ZlXX1q0cxYyTebtStT/a3r3lfNrRjX63mcsiCDiT81+po5QZGPffgGhI+G+FCrGXHicWniQ6On/dko0X71W6OFfmeBrqUGcjNnl7me/JInL0DDm88zT+/YXZss9pk8oP66Pvp0P20lhQD4vssnVsa+558sHMQByCVAOoDjtoxvJNwzaM7Y2yH2G5zq+CaLAXWLzEmFSPWK3Ny5qnU8InNIH7XJaXegXGPhFyXLvSygb1x7l3ez9j7+Ph6+MlIoTmBY9gE0H7bPW3VvJHCibPTxpkyiP9GWz2b5JeJGpTXy4T0piu+/rImSk2d5T/iHvvN0bzV4yxGdm2Z0k3UByN00GkGX1B4o7fFbaotDx0p6IAC5ksM6+4wKQJ59Y15JiwOQKzmss8+oAOTZN+aVtDgAuZLDOvuMCkCefWNeSYsDkCs5rLPPqNyvqK9evaomJyfViRMn1IIFC9SKFSvUxo0bYz09MDCgtm7dqoaHh2PblbUSX5w9e9b4ZNOmTaq3t1f19/eX1Zzu0Jsr6jzoypUrMxqI/H+uGx4N6Jldu3bN0MZH9Nm5c6evyls2ODhoZExNTXnru6Xw+PHjMxq4Df5Adz3BZw4cONAtqpZOj1xSCyJNX1+f0gNjIuuRI0eUHkQ1MTGh9u/fr9auXas0kBWRl4jdLhHliWpFELahN79JSPrhBz1JjS/EJ3v27FEaOWYFcvnu2LFD8QRq4oGspx5RloirgTWjByuSvQa0iUx6SW1oQ3mSiNzAIMcCbEK/ONt84vWENv2IylHkq9Np2AxPoHgPZB6R9+7da6Is0Zj8L4qIPkQmIhBtq05nzpwxK1FcLhxXV3X/tG1fPM6T1xKN9YC11JHoTeR2I442ykRkIhR5NlGbh799UYvoTu7pEvzJxakjBx0aGprRaY7brPZOjkpbbBB5kndLfks5+vFLW3l8etmCsJF+UfsCV6nt27fXdEEfWxZ1Ltm601anI949g/gKu/AHfsEWW3/q6O/6TXzgs1Xkw49++B3ib2S6xIom8kXfVn3j8uI904hMdCUaawVbmmCcYhCFjh071tB+fHxcrVu3zuSRejNnohm5NmVuBCfaHT16tI4HepDLkn/Sl1ydPHrz5s3enJNyVgntTKWBUicPXujKaQu8IH55l4f6OJI8F/337dvntdnuj1/gjc48tizqhNANnuiux9Povnz5crMXodzNucVX1GErfqG96E976lhZkUs9fPHPtm3bjJ/dfY3tO+GH3+FDe2TaxPgxNiIf20Rft22cT+vqfOhOWyb5Y5L8lrZaoTqRvPO4fJixRHsilD17fTzISYn2bvTQDm7IcaW/GzmQ4UbwtDkyBsIfncQ+fiXaEtF8RCTniSLJvd2cnaga5yvXt8Kf6Ozzm9iNzrYs8afPd8h3xxG9KENvm/C1nlAmSqehegSl4WD1SQNkGQhbNIZGpScAk3ocKOQCGafQxrcE0weH2XUsh3FgsXVrB8jCBx7ozINcATdLrEtxQBY7XVDYcvCDDTLxlR0IpL341gWl1OMzF8joFzVWPjwID9dO3pELf59uvvZ2WaYXIrLkucuZVi6SuCxhaXMpKj1BBkseS1bUsZTIJ2VhCXNpenq6bsllOWNJLIo0YBWPEEs1thw8eNCkTaQJrZDYGeUrkeEbD18qNDY2ZsTautl6IIe0yCZ8rCeHV10fH3RBtm9cJGWhja+vV8jtwkyBLHkkxgEOznfjCDCidFIQ9fT0xLGt5XvksT4ddBTxlscyzbESv5GTAmR80iqQ81LJzYGzliM5v48v+yHfmPna1pU1C9lJ62U50TMqtivLB/mYVqZhd00ZdT5qJbWgHzyiUguXL6lGM32lT9rUotlyKXa5OnNrGZX2tJNauD7gPW1qoYHnY2dyacaBdEYoLrXxMmmxMNMcWWRKHgQY5fjK1gcDBcS+fAzjeeQIR/oK+MkpbWCIc2wZ6MBGyt3s0c/dWEl/HRXr3Ibu7mZPwGMPTjNf04fB1pHW6w/kiD/wjU2+gbdtF1+7fhSerfjKlicbRNdvAkrGxdYR/1CGbTbRH5tdIKMXOrnt6QtfV24d05iXXICMPBkAia5EPB4xDmNc54ue9JEdLwPMmSaGA0zqXHD5gMxgCw/6Myn4RT6y3Qkmm07k0ZbdM/JcIKAjERI94Cc844CNLsLf9gcy8AllPD5/oCd16G3rJfrbdvp0d4Hh85WND9pjMzLRT87h7TFxJ5tMJnSUcaa92Oz6RjZ1oq/YRR+3bQx266pyAzJScDaKMfAs3wCLvzlxsKOKqyxtMBan4gz68fC3C0D6xg0OsuAnsnG6jwd8kMlSjq70iWqL7tQ108u1y/aH+CROjvQHOLYNPsBT1gpPaefqZr9jnz1u+ITgwXggw50c9EVH6UN75GBv1ASVsRW7pE+cXnF1uQI5TnCWdXFAzlJO4JXMA5J2uBE8GZfWWmd6s6dnX0co7112R4wqkVD3SA7VObUaGRkxN6BJj9LSmF7qf2mIM1fOofnVS5SSc9A0jgh90nkAn3NFrfNj87kBD0eqlHM/wC9leVOpgczZK47iHBYw+w7583Zg4K9qXzDKxQvjQBTmPLyoMSk1kAOIggfEA5XIkcNwBg8EIAcMVMIDAciVGMZgRABywEAlPBCAXIlhDEYEIAcMVMIDAciVGMZgRABywEAlPBCAXIlhDEYEIAcMVMIDAciVGMZgRABywEAlPBCAXIlhDEb8H5HlxeksaAT/AAAAAElFTkSuQmCC;" vertex="1" parent="1">
                    <mxGeometry x="640" y="349.91" width="128" height="54.65" as="geometry"/>
                </mxCell>
                <mxCell id="13" value="" style="edgeStyle=none;html=1;strokeColor=#000000;" edge="1" parent="1" source="5" target="3">
                    <mxGeometry relative="1" as="geometry"/>
                </mxCell>
                <mxCell id="5" value="" style="shape=image;verticalLabelPosition=bottom;labelBackgroundColor=#ffffff;verticalAlign=top;aspect=fixed;imageAspect=0;image=https://upload.wikimedia.org/wikipedia/commons/thumb/d/de/AirflowLogo.png/800px-AirflowLogo.png;" vertex="1" parent="1">
                    <mxGeometry x="425" y="350.44" width="140" height="54.12" as="geometry"/>
                </mxCell>
                <mxCell id="12" value="" style="edgeStyle=none;html=1;strokeColor=#000000;" edge="1" parent="1" source="6" target="5">
                    <mxGeometry relative="1" as="geometry"/>
                </mxCell>
                <mxCell id="6" value="" style="shape=image;verticalLabelPosition=bottom;labelBackgroundColor=#ffffff;verticalAlign=top;aspect=fixed;imageAspect=0;image=https://upload.wikimedia.org/wikipedia/commons/thumb/c/c3/Python-logo-notext.svg/1200px-Python-logo-notext.svg.png;" vertex="1" parent="1">
                    <mxGeometry x="270" y="327.13" width="92.02" height="100.74" as="geometry"/>
                </mxCell>
                <mxCell id="11" value="" style="edgeStyle=none;html=1;strokeColor=#000000;" edge="1" parent="1" source="10" target="6">
                    <mxGeometry relative="1" as="geometry"/>
                </mxCell>
                <mxCell id="10" value="" style="shape=image;verticalLabelPosition=bottom;labelBackgroundColor=#ffffff;verticalAlign=top;aspect=fixed;imageAspect=0;image=https://help.twitter.com/content/dam/help-twitter/brand/logo.png;" vertex="1" parent="1">
                    <mxGeometry x="50" y="310" width="135" height="135" as="geometry"/>
                </mxCell>
                <mxCell id="14" value="&lt;h1&gt;&lt;font color=&quot;#0a0a0a&quot;&gt;&lt;b&gt;Twitter Data Pipeline&lt;/b&gt;&lt;/font&gt;&lt;/h1&gt;" style="text;html=1;strokeColor=none;fillColor=none;align=center;verticalAlign=middle;whiteSpace=wrap;rounded=0;" vertex="1" parent="1">
                    <mxGeometry x="293" y="240" width="265" height="30" as="geometry"/>
                </mxCell>
            </root>
        </mxGraphModel>
    </diagram>
</mxfile>